#N canvas 1140 102 678 694 12;
#X obj 31 89 oscparse;
#X listbox 31 150 13 0 0 0 - - - 0;
#X floatatom 231 91 4 0 0 0 - - - 0;
#X obj 31 120 list split, f 29;
#X listbox 131 150 15 0 0 0 - - - 0;
#X obj 30 26 netreceive -u -b 9500;
#X obj 44 57 print OSC-packet;
#X obj 39 446 tgl 19 0 empty empty empty 0 -10 0 12 #fcfcfc #000000 #000000 0 1;
#X msg 53 334 disconnect;
#X msg 36 298 connect localhost 9501;
#X msg 153 335 1 2 3;
#X obj 38 403 netsend -u -b;
#X obj 78 371 oscformat /pdtest hello;
#X connect 0 0 3 0;
#X connect 0 1 2 0;
#X connect 2 0 3 1;
#X connect 3 0 1 0;
#X connect 3 1 4 0;
#X connect 5 0 6 0;
#X connect 5 0 0 0;
#X connect 8 0 11 0;
#X connect 9 0 11 0;
#X connect 10 0 12 0;
#X connect 11 0 7 0;
#X connect 12 0 11 0;
